
<svg viewBox="0 0 48 48" xmlns="http://www.w3.org/2000/svg">

<!--          SOCIAL NETWORKS           -->

<symbol id="eita" viewBox="0 0 24 24" fill="none" >
<path d="M5.83296 23.9414C4.99202 23.8138 4.18319 23.5321 3.4489 23.1114C1.79275 22.1824 0.556722 20.5185 0.160066 18.6855C0.00568559 17.9686 -0.0137593 17.0626 0.00676588 11.4788C0.0262108 5.46986 0.0118726 5.77993 0.304233 4.78996C0.449383 4.29699 0.853208 3.44995 1.14557 3.02297C2.22417 1.453 3.81079 0.445061 5.77679 0.0800409C6.16932 0.00703679 6.73774 2.45514e-05 11.9681 2.45514e-05C18.3587 2.45514e-05 18.1482 -0.00890885 19.1919 0.314038C21.2459 0.964063 22.8752 2.50964 23.6023 4.49794C23.9396 5.43489 23.956 5.58493 23.9795 8.05286L23.9999 10.2827L23.6002 10.5507C23.0297 10.9317 22.2814 11.6108 21.2324 12.7007C20.024 13.9567 18.8034 15.1207 18.1838 15.6076C16.8455 16.6586 15.6197 17.2586 14.3746 17.4715C13.7264 17.5815 12.655 17.5385 12.0212 17.3765C11.4558 17.2325 11.4926 17.2085 11.2789 17.8405C11.1053 18.3406 10.9961 18.86 10.9538 19.3865L10.9221 19.7935L10.7728 19.7635C9.53073 19.5225 8.29981 18.4785 7.8244 17.2636C7.66363 16.8756 7.57367 16.463 7.55855 16.0446L7.54225 15.7046L7.22632 15.4206C6.56794 14.8306 6.13956 14.1086 6.00463 13.3597C5.78789 12.1667 6.35218 10.8178 7.57701 9.60381C8.86921 8.32086 10.7738 7.31388 12.6406 6.92389C13.3134 6.78383 14.4993 6.74685 15.0973 6.84887C16.2607 7.04684 17.2105 7.62184 17.8014 8.48781C17.9875 8.75879 18.0007 8.79779 17.9824 9.04283C17.9777 9.22294 17.9119 9.39633 17.7953 9.5358C17.3199 10.1868 15.906 10.8838 14.3848 11.2158C11.7011 11.8008 9.99486 11.0738 10.2617 9.45684C10.2883 9.29383 10.3025 9.15282 10.2934 9.14388C10.2607 9.1119 9.99388 9.24792 9.70554 9.44387C9.21579 9.77787 8.7824 10.4279 8.63205 11.0508C8.59522 11.2068 8.58088 11.4568 8.59728 11.7009C8.61771 12.0319 8.65149 12.1548 8.7936 12.4368C8.88768 12.6228 9.07476 12.8869 9.21068 13.0258L9.456 13.2768L9.35789 13.3988C9.06848 13.7698 8.83533 14.1796 8.66573 14.6157C8.47334 15.2021 8.43642 15.8265 8.55839 16.4307C8.66367 16.8916 8.98873 17.5256 9.31389 17.8986C9.56128 18.1836 10.1287 18.6626 10.2197 18.6626C10.2442 18.6626 10.2646 18.6145 10.2646 18.5566C10.2656 18.3266 10.4527 17.5836 10.5979 17.2297C11.0303 16.1717 11.9791 15.2697 13.4809 14.4897C13.7314 14.3597 14.4541 14.0197 15.088 13.7328C16.4784 13.1028 17.238 12.7178 17.6552 12.4278C18.8574 11.5948 19.6006 10.3629 19.8429 8.80297C19.9308 8.23297 19.9308 7.16903 19.8429 6.59604C19.4667 4.15809 17.5989 2.50013 14.9173 2.22617C11.9269 1.91917 8.12078 4.17913 5.77551 7.65306C4.63455 9.34301 3.86373 11.218 3.53965 13.0959C3.41394 13.8239 3.3669 15.1758 3.44458 15.8459C3.64188 17.5498 4.28494 18.9237 5.39005 20.0017C5.94345 20.5459 6.59063 20.9903 7.30184 21.3147C9.72273 22.4447 12.4033 22.4697 14.7598 21.3857C15.778 20.9168 16.778 20.1897 17.8504 19.1357C18.8932 18.1107 19.5986 17.2558 21.5226 14.6779C22.5859 13.255 23.4282 12.31 23.8454 12.073L23.9988 11.987L23.9794 15.0779C23.961 18.0708 23.9569 18.1848 23.8537 18.6387C23.2403 21.3166 21.2569 23.2746 18.5426 23.8806L18.0641 23.9876L12.1601 23.9976C7.3204 24.0056 6.17944 23.9956 5.83188 23.9416H5.83287L5.83296 23.9414Z" fill="currentColor"/>
</symbol>

<symbol id="instagram" viewBox="0 0 24 24" fill="none"  >
<path d="M12 2.162C15.204 2.162 15.584 2.174 16.849 2.232C18.157 2.292 19.504 2.59 20.457 3.543C21.419 4.505 21.708 5.839 21.768 7.151C21.826 8.416 21.838 8.796 21.838 12C21.838 15.204 21.826 15.584 21.768 16.849C21.709 18.15 21.404 19.51 20.457 20.457C19.495 21.419 18.162 21.708 16.849 21.768C15.584 21.826 15.204 21.838 12 21.838C8.796 21.838 8.416 21.826 7.151 21.768C5.86 21.709 4.482 21.397 3.543 20.457C2.586 19.5 2.292 18.153 2.232 16.849C2.174 15.584 2.162 15.204 2.162 12C2.162 8.796 2.174 8.416 2.232 7.151C2.291 5.855 2.599 4.487 3.543 3.543C4.503 2.583 5.842 2.292 7.151 2.232C8.416 2.174 8.796 2.162 12 2.162ZM12 0C8.741 0 8.332 0.014 7.052 0.072C5.197 0.157 3.355 0.673 2.014 2.014C0.668 3.36 0.157 5.198 0.072 7.052C0.014 8.332 0 8.741 0 12C0 15.259 0.014 15.668 0.072 16.948C0.157 18.801 0.675 20.648 2.014 21.986C3.359 23.331 5.2 23.843 7.052 23.928C8.332 23.986 8.741 24 12 24C15.259 24 15.668 23.986 16.948 23.928C18.802 23.843 20.646 23.326 21.986 21.986C23.333 20.639 23.843 18.802 23.928 16.948C23.986 15.668 24 15.259 24 12C24 8.741 23.986 8.332 23.928 7.052C23.843 5.197 23.326 3.354 21.986 2.014C20.643 0.671 18.797 0.156 16.948 0.072C15.668 0.014 15.259 0 12 0Z" fill="currentColor"/>
<path d="M11.9999 5.83789C8.59689 5.83789 5.83789 8.59689 5.83789 11.9999C5.83789 15.4029 8.59689 18.1619 11.9999 18.1619C15.4029 18.1619 18.1619 15.4029 18.1619 11.9999C18.1619 8.59689 15.4029 5.83789 11.9999 5.83789ZM11.9999 15.9999C9.79089 15.9999 7.99989 14.2089 7.99989 11.9999C7.99989 9.79089 9.79089 7.99989 11.9999 7.99989C14.2089 7.99989 15.9999 9.79089 15.9999 11.9999C15.9999 14.2089 14.2089 15.9999 11.9999 15.9999Z" fill="currentColor"/>
<path d="M18.4061 7.03381C19.2014 7.03381 19.8461 6.3891 19.8461 5.59381C19.8461 4.79852 19.2014 4.15381 18.4061 4.15381C17.6108 4.15381 16.9661 4.79852 16.9661 5.59381C16.9661 6.3891 17.6108 7.03381 18.4061 7.03381Z" fill="currentColor"/>
</symbol>

<symbol id="telegram" viewBox="0 0 24 24" fill="none"  >
<path fill-rule="evenodd" clip-rule="evenodd" d="M12 0C5.373 0 0 5.373 0 12C0 18.627 5.373 24 12 24C18.627 24 24 18.627 24 12C24 5.373 18.627 0 12 0ZM17.562 8.161C17.382 10.058 16.6 14.663 16.203 16.788C16.035 17.688 15.703 17.989 15.383 18.018C14.686 18.082 14.157 17.557 13.482 17.115C12.426 16.423 11.829 15.992 10.804 15.316C9.619 14.535 10.387 14.106 11.062 13.405C11.239 13.221 14.309 10.428 14.369 10.175C14.376 10.143 14.384 10.025 14.313 9.963C14.242 9.901 14.139 9.922 14.065 9.939C13.959 9.963 12.272 11.078 9.003 13.284C8.524 13.613 8.09 13.773 7.701 13.765C7.273 13.756 6.449 13.523 5.836 13.323C5.085 13.079 4.487 12.949 4.539 12.535C4.566 12.319 4.863 12.098 5.431 11.872C8.929 10.348 11.262 9.343 12.429 8.857C15.762 7.471 16.454 7.23 16.906 7.222C17.472 7.214 17.608 7.681 17.562 8.161Z" fill="currentColor"/>
</symbol>

<symbol id="whatsapp" viewBox="0 0 24 24" fill="none"  >
<path fill-rule="evenodd" clip-rule="evenodd" d="M20.4629 3.488C18.2169 1.24 15.2309 0.001 12.0499 0C5.49488 0 0.159885 5.334 0.156885 11.892C0.155885 13.988 0.703885 16.034 1.74488 17.838L0.0568848 24L6.36088 22.346C8.09789 23.294 10.0539 23.793 12.0439 23.794H12.0489C18.6029 23.794 23.9389 18.459 23.9419 11.901C23.9439 8.724 22.7079 5.735 20.4629 3.488ZM12.0499 21.785H12.0459C10.2719 21.785 8.53288 21.308 7.01488 20.407L6.65388 20.193L2.91288 21.174L3.91188 17.526L3.67688 17.152C2.68688 15.578 2.16488 13.759 2.16588 11.892C2.16788 6.442 6.60288 2.008 12.0549 2.008C14.6949 2.008 17.1769 3.038 19.0429 4.906C20.9089 6.775 21.9359 9.258 21.9349 11.899C21.9319 17.351 17.4979 21.785 12.0499 21.785ZM17.4719 14.382C17.1749 14.233 15.7139 13.514 15.4409 13.415C15.1689 13.316 14.9709 13.266 14.7719 13.563C14.5729 13.86 14.0049 14.53 13.8309 14.729C13.6579 14.927 13.4839 14.952 13.1869 14.803C12.8899 14.654 11.9319 14.341 10.7969 13.328C9.91388 12.54 9.31688 11.567 9.14388 11.269C8.97088 10.971 9.12589 10.811 9.27388 10.663C9.40788 10.53 9.57088 10.316 9.71988 10.142C9.86988 9.97 9.91888 9.846 10.0189 9.647C10.1179 9.449 10.0689 9.275 9.99389 9.126C9.91889 8.978 9.32488 7.515 9.07788 6.92C8.83688 6.34 8.59188 6.419 8.40889 6.41C8.23588 6.401 8.03788 6.4 7.83888 6.4C7.64088 6.4 7.31888 6.474 7.04688 6.772C6.77488 7.07 6.00688 7.789 6.00688 9.251C6.00688 10.714 7.07188 12.127 7.21988 12.325C7.36788 12.523 9.31488 15.525 12.2959 16.812C13.0049 17.118 13.5589 17.301 13.9899 17.438C14.7019 17.664 15.3499 17.632 15.8619 17.556C16.4329 17.471 17.6199 16.837 17.8679 16.143C18.1159 15.449 18.1159 14.853 18.0409 14.73C17.9669 14.605 17.7689 14.531 17.4719 14.382Z" fill="currentColor"/>
</symbol>

<symbol id="linkedin" viewBox="0 0 20 20" fill="none" >
<path d="M4.88571 2.46253C4.88571 3.8187 3.79286 4.92505 2.44286 4.92505C1.09286 4.92505 0 3.82584 0 2.46253C0 1.10635 1.09286 0 2.44286 0C3.79286 0 4.88571 1.10635 4.88571 2.46253ZM4.52857 6.66667H0.4V20H4.52857V6.66667ZM11.1286 6.66667H7.17143V20H11.1286C11.1286 20 11.1286 15.0535 11.1286 13.005C11.1286 11.1278 11.9929 10.0143 13.6429 10.0143C15.1643 10.0143 15.8929 11.0849 15.8929 13.005C15.8929 14.9251 15.8929 20 15.8929 20H20C20 20 20 15.132 20 11.556C20 7.98715 17.9786 6.25981 15.1429 6.25981C12.3143 6.25981 11.1214 8.46538 11.1214 8.46538V6.66667H11.1286Z" fill="currentColor"/>
</symbol>


<!--       MOST USE       -->


<symbol id="menu" viewBox="0 0 32 32" fill="none"  >
<path d="M6.28939 16.0956L25.7109 16.0956M6.28939 24.377L25.7109 24.377M6.28939 7.62326L25.7109 7.62326" stroke="currentColor" stroke-width="3" stroke-miterlimit="10" stroke-linecap="round" stroke-linejoin="round"/>
</symbol>

<symbol id="close"  viewBox="0 0 24 24" fill="none"   >
<path fill-rule="evenodd" clip-rule="evenodd" d="M5.29289 5.29289C5.68342 4.90237 6.31658 4.90237 6.70711 5.29289L12 10.5858L17.2929 5.29289C17.6834 4.90237 18.3166 4.90237 18.7071 5.29289C19.0976 5.68342 19.0976 6.31658 18.7071 6.70711L13.4142 12L18.7071 17.2929C19.0976 17.6834 19.0976 18.3166 18.7071 18.7071C18.3166 19.0976 17.6834 19.0976 17.2929 18.7071L12 13.4142L6.70711 18.7071C6.31658 19.0976 5.68342 19.0976 5.29289 18.7071C4.90237 18.3166 4.90237 17.6834 5.29289 17.2929L10.5858 12L5.29289 6.70711C4.90237 6.31658 4.90237 5.68342 5.29289 5.29289Z" fill="currentColor"/>
</symbol>

<symbol id="more-arrow" viewBox="0 0 24 24" fill="none"  >
<path d="M7.373 12.75L13.0693 18.4462L12 19.5L4.5 12L12 4.5L13.0693 5.55375L7.373 11.25H19.5V12.75H7.373Z" fill="currentColor"/>
</symbol>

<symbol  id="right-arrow" viewBox="0 0 24 24" fill="none" >
<path d="M9 6L15 12L9 18" stroke="currentColor" stroke-width="2" stroke-linecap="round" stroke-linejoin="round"/>
</symbol>

<symbol  id="left-arrow" viewBox="0 0 24 24" fill="none" >
<path d="M15 6L9 12L15 18" stroke="#535353" stroke-width="2" stroke-linecap="round" stroke-linejoin="round"/>
</symbol>

<symbol id="phone" viewBox="0 0 28 28" fill="none" >
<path d="M22.6802 23.9168C20.4816 23.9168 18.2728 23.4056 16.0538 22.3832C13.835 21.3609 11.7964 19.9187 9.93788 18.0567C8.07957 16.1945 6.63922 14.1557 5.61684 11.9404C4.59445 9.7253 4.08325 7.51845 4.08325 5.31987C4.08325 4.96657 4.19992 4.67218 4.43325 4.4367C4.66659 4.20123 4.95825 4.0835 5.30825 4.0835H9.11334C9.40792 4.0835 9.66779 4.17965 9.89296 4.37195C10.1181 4.56407 10.2613 4.80148 10.3226 5.0842L10.9914 8.51683C11.0377 8.83533 11.0279 9.10901 10.9622 9.33787C10.8963 9.56673 10.7781 9.75894 10.6075 9.9145L7.91313 12.5375C8.34674 13.3316 8.84218 14.0828 9.39946 14.7912C9.95654 15.4993 10.5597 16.1757 11.209 16.8203C11.8491 17.4606 12.5296 18.0552 13.2506 18.6041C13.9716 19.153 14.7502 19.6638 15.5863 20.1365L18.2043 17.4958C18.3869 17.3058 18.608 17.1726 18.8675 17.0962C19.1269 17.02 19.3965 17.0013 19.6763 17.0402L22.9159 17.7C23.2105 17.7777 23.4509 17.928 23.6372 18.1509C23.8234 18.3737 23.9166 18.6265 23.9166 18.9092V22.6918C23.9166 23.0418 23.7988 23.3335 23.5634 23.5668C23.3279 23.8002 23.0335 23.9168 22.6802 23.9168ZM7.08509 10.8817L9.16729 8.88929C9.20463 8.85934 9.22893 8.81822 9.24021 8.76591C9.25149 8.71361 9.24964 8.665 9.23467 8.62008L8.72746 6.01287C8.71249 5.95318 8.68634 5.90836 8.649 5.87841C8.61167 5.84847 8.56306 5.8335 8.50317 5.8335H6.00825C5.96334 5.8335 5.9259 5.84847 5.89596 5.87841C5.86621 5.90836 5.85134 5.94579 5.85134 5.9907C5.91103 6.78793 6.0415 7.59779 6.24275 8.42029C6.44381 9.24298 6.72459 10.0634 7.08509 10.8817ZM17.2351 20.9643C18.0084 21.3248 18.8149 21.6004 19.6548 21.7912C20.4948 21.9817 21.2796 22.095 22.0094 22.131C22.0543 22.131 22.0917 22.116 22.1217 22.086C22.1516 22.0561 22.1666 22.0187 22.1666 21.9737V19.5194C22.1666 19.4595 22.1516 19.4109 22.1217 19.3735C22.0917 19.3362 22.0469 19.3101 21.9872 19.2951L19.5372 18.7969C19.4923 18.7819 19.453 18.7801 19.4194 18.7914C19.3857 18.8026 19.3502 18.827 19.3126 18.8643L17.2351 20.9643Z" fill="currentColor"/>
</symbol>

<symbol id="phone-calling"  viewBox="0 0 20 20" fill="none"  >
<path d="M10.8332 0.833199C10.8332 0.612186 10.921 0.400224 11.0773 0.243944C11.2336 0.0876633 11.4455 -0.000134037 11.6666 -0.000134037C13.8759 0.00229229 15.9942 0.881045 17.5564 2.44332C19.1187 4.0056 19.9975 6.12381 19.9999 8.3332C19.9999 8.55421 19.9121 8.76618 19.7558 8.92246C19.5995 9.07874 19.3876 9.16653 19.1665 9.16653C18.9455 9.16653 18.7336 9.07874 18.5773 8.92246C18.421 8.76618 18.3332 8.55421 18.3332 8.3332C18.3312 6.5657 17.6282 4.87116 16.3784 3.62135C15.1286 2.37153 13.4341 1.66852 11.6666 1.66653C11.4455 1.66653 11.2336 1.57874 11.0773 1.42246C10.921 1.26617 10.8332 1.05421 10.8332 0.833199V0.833199ZM11.6666 4.99987C12.5506 4.99987 13.3985 5.35106 14.0236 5.97618C14.6487 6.6013 14.9999 7.44915 14.9999 8.3332C14.9999 8.55421 15.0877 8.76618 15.244 8.92246C15.4002 9.07874 15.6122 9.16653 15.8332 9.16653C16.0542 9.16653 16.2662 9.07874 16.4225 8.92246C16.5788 8.76618 16.6666 8.55421 16.6666 8.3332C16.6652 7.00752 16.138 5.73652 15.2006 4.79913C14.2632 3.86173 12.9922 3.33452 11.6666 3.3332C11.4455 3.3332 11.2336 3.421 11.0773 3.57728C10.921 3.73356 10.8332 3.94552 10.8332 4.16653C10.8332 4.38755 10.921 4.59951 11.0773 4.75579C11.2336 4.91207 11.4455 4.99987 11.6666 4.99987V4.99987ZM19.244 13.949C19.727 14.4333 19.9982 15.0893 19.9982 15.7732C19.9982 16.4571 19.727 17.1131 19.244 17.5974L18.4857 18.4715C11.6607 25.0057 -4.94759 8.40153 1.48574 1.55487L2.44407 0.721533C2.92888 0.252097 3.57901 -0.00759314 4.25382 -0.001355C4.92863 0.00488313 5.57385 0.276548 6.0499 0.754866C6.07573 0.780699 7.6199 2.78653 7.6199 2.78653C8.07809 3.26789 8.33315 3.90731 8.33206 4.57187C8.33098 5.23643 8.07383 5.87501 7.61406 6.35487L6.64907 7.5682C7.1831 8.86579 7.96828 10.0451 8.95949 11.0383C9.95069 12.0315 11.1284 12.819 12.4249 13.3557L13.6457 12.3849C14.1256 11.9255 14.7641 11.6686 15.4285 11.6677C16.0928 11.6668 16.732 11.9218 17.2132 12.3799C17.2132 12.3799 19.2182 13.9232 19.244 13.949ZM18.0974 15.1607C18.0974 15.1607 16.1032 13.6265 16.0774 13.6007C15.9057 13.4305 15.6737 13.335 15.432 13.335C15.1902 13.335 14.9582 13.4305 14.7866 13.6007C14.7641 13.624 13.0832 14.9632 13.0832 14.9632C12.97 15.0534 12.8352 15.1125 12.6921 15.1347C12.549 15.1569 12.4027 15.1414 12.2674 15.0899C10.5878 14.4645 9.06218 13.4855 7.79393 12.2191C6.52568 10.9527 5.5444 9.42856 4.91657 7.74987C4.8609 7.61275 4.84275 7.46327 4.86399 7.31682C4.88522 7.17036 4.94508 7.0322 5.0374 6.91653C5.0374 6.91653 6.37657 5.23487 6.39907 5.2132C6.56929 5.04152 6.6648 4.80955 6.6648 4.56778C6.6648 4.32602 6.56929 4.09404 6.39907 3.92237C6.37323 3.89737 4.83907 1.90153 4.83907 1.90153C4.66482 1.74529 4.4374 1.66161 4.20344 1.66766C3.96948 1.6737 3.74669 1.769 3.58074 1.93403L2.6224 2.76737C-2.07926 8.4207 12.3132 22.0149 17.2674 17.3332L18.0266 16.4582C18.2045 16.2934 18.3113 16.0659 18.3245 15.8238C18.3377 15.5817 18.2563 15.3439 18.0974 15.1607V15.1607Z" fill="currentColor"/>
</symbol>

<symbol id="email" viewBox="0 0 28 28" fill="none">
<path d="M5.02579 22.75C4.43643 22.75 3.93758 22.5458 3.52925 22.1375C3.12091 21.7292 2.91675 21.2303 2.91675 20.641V7.35904C2.91675 6.76968 3.12091 6.27083 3.52925 5.8625C3.93758 5.45417 4.43643 5.25 5.02579 5.25H22.9744C23.5637 5.25 24.0626 5.45417 24.4709 5.8625C24.8792 6.27083 25.0834 6.76968 25.0834 7.35904V20.641C25.0834 21.2303 24.8792 21.7292 24.4709 22.1375C24.0626 22.5458 23.5637 22.75 22.9744 22.75H5.02579ZM14.0001 14.6507L4.66675 8.68263V20.641C4.66675 20.7458 4.70039 20.8318 4.76766 20.8991C4.83494 20.9664 4.92098 21 5.02579 21H22.9744C23.0792 21 23.1652 20.9664 23.2325 20.8991C23.2998 20.8318 23.3334 20.7458 23.3334 20.641V8.68263L14.0001 14.6507ZM14.0001 12.8333L23.154 7H4.84612L14.0001 12.8333ZM4.66675 8.68263V7V20.641C4.66675 20.7458 4.70039 20.8318 4.76766 20.8991C4.83494 20.9664 4.92098 21 5.02579 21H4.66675V8.68263Z" fill="currentColor"/>
</symbol>


<!--      MORE      -->

</svg> 